<?xml version="1.0" encoding="UTF-8"?>
<svg width="335px" height="407px" viewBox="0 0 335 407" version="1.1" xmlns="http://www.w3.org/2000/svg" xmlns:xlink="http://www.w3.org/1999/xlink">
    <title>theme_default</title>
    <defs>
        <rect id="path-1" x="0" y="0" width="335" height="407" rx="10"></rect>
        <filter x="-0.1%" y="-0.1%" width="100.3%" height="100.2%" filterUnits="objectBoundingBox" id="filter-2">
            <feOffset dx="1" dy="1" in="SourceAlpha" result="shadowOffsetInner1"></feOffset>
            <feComposite in="shadowOffsetInner1" in2="SourceAlpha" operator="arithmetic" k2="-1" k3="1" result="shadowInnerInner1"></feComposite>
            <feColorMatrix values="0 0 0 0 1   0 0 0 0 1   0 0 0 0 1  0 0 0 0.889279666 0" type="matrix" in="shadowInnerInner1"></feColorMatrix>
        </filter>
        <rect id="path-3" x="13" y="36" width="310" height="70" rx="10"></rect>
        <filter x="-15.5%" y="-60.0%" width="131.0%" height="237.1%" filterUnits="objectBoundingBox" id="filter-4">
            <feOffset dx="0" dy="6" in="SourceAlpha" result="shadowOffsetOuter1"></feOffset>
            <feGaussianBlur stdDeviation="15" in="shadowOffsetOuter1" result="shadowBlurOuter1"></feGaussianBlur>
            <feComposite in="shadowBlurOuter1" in2="SourceAlpha" operator="out" result="shadowBlurOuter1"></feComposite>
            <feColorMatrix values="0 0 0 0 0   0 0 0 0 0   0 0 0 0 0  0 0 0 0.0517612271 0" type="matrix" in="shadowBlurOuter1"></feColorMatrix>
        </filter>
        <rect id="path-5" x="0" y="0" width="310" height="152" rx="10"></rect>
        <filter x="-15.5%" y="-27.6%" width="131.0%" height="163.2%" filterUnits="objectBoundingBox" id="filter-6">
            <feOffset dx="0" dy="6" in="SourceAlpha" result="shadowOffsetOuter1"></feOffset>
            <feGaussianBlur stdDeviation="15" in="shadowOffsetOuter1" result="shadowBlurOuter1"></feGaussianBlur>
            <feComposite in="shadowBlurOuter1" in2="SourceAlpha" operator="out" result="shadowBlurOuter1"></feComposite>
            <feColorMatrix values="0 0 0 0 0   0 0 0 0 0   0 0 0 0 0  0 0 0 0.0517612271 0" type="matrix" in="shadowBlurOuter1"></feColorMatrix>
        </filter>
        <rect id="path-7" x="0" y="0" width="310" height="47" rx="10"></rect>
        <filter x="-15.5%" y="-89.4%" width="131.0%" height="304.3%" filterUnits="objectBoundingBox" id="filter-8">
            <feOffset dx="0" dy="6" in="SourceAlpha" result="shadowOffsetOuter1"></feOffset>
            <feGaussianBlur stdDeviation="15" in="shadowOffsetOuter1" result="shadowBlurOuter1"></feGaussianBlur>
            <feComposite in="shadowBlurOuter1" in2="SourceAlpha" operator="out" result="shadowBlurOuter1"></feComposite>
            <feColorMatrix values="0 0 0 0 0   0 0 0 0 0   0 0 0 0 0  0 0 0 0.0517612271 0" type="matrix" in="shadowBlurOuter1"></feColorMatrix>
        </filter>
        <rect id="path-9" x="0" y="0" width="310" height="32" rx="10"></rect>
        <filter x="-15.5%" y="-131.2%" width="131.0%" height="400.0%" filterUnits="objectBoundingBox" id="filter-10">
            <feOffset dx="0" dy="6" in="SourceAlpha" result="shadowOffsetOuter1"></feOffset>
            <feGaussianBlur stdDeviation="15" in="shadowOffsetOuter1" result="shadowBlurOuter1"></feGaussianBlur>
            <feComposite in="shadowBlurOuter1" in2="SourceAlpha" operator="out" result="shadowBlurOuter1"></feComposite>
            <feColorMatrix values="0 0 0 0 0   0 0 0 0 0   0 0 0 0 0  0 0 0 0.0517612271 0" type="matrix" in="shadowBlurOuter1"></feColorMatrix>
        </filter>
        <rect id="path-11" x="0" y="0" width="101" height="29" rx="14.5"></rect>
        <filter x="-32.7%" y="-93.1%" width="165.3%" height="327.6%" filterUnits="objectBoundingBox" id="filter-12">
            <feOffset dx="0" dy="6" in="SourceAlpha" result="shadowOffsetOuter1"></feOffset>
            <feGaussianBlur stdDeviation="10" in="shadowOffsetOuter1" result="shadowBlurOuter1"></feGaussianBlur>
            <feComposite in="shadowBlurOuter1" in2="SourceAlpha" operator="out" result="shadowBlurOuter1"></feComposite>
            <feColorMatrix values="0 0 0 0 0   0 0 0 0 0   0 0 0 0 0  0 0 0 0.0517612271 0" type="matrix" in="shadowBlurOuter1"></feColorMatrix>
        </filter>
        <rect id="path-13" x="0" y="0" width="104" height="29" rx="14.5"></rect>
        <filter x="-31.7%" y="-93.1%" width="163.5%" height="327.6%" filterUnits="objectBoundingBox" id="filter-14">
            <feOffset dx="0" dy="6" in="SourceAlpha" result="shadowOffsetOuter1"></feOffset>
            <feGaussianBlur stdDeviation="10" in="shadowOffsetOuter1" result="shadowBlurOuter1"></feGaussianBlur>
            <feComposite in="shadowBlurOuter1" in2="SourceAlpha" operator="out" result="shadowBlurOuter1"></feComposite>
            <feColorMatrix values="0 0 0 0 0   0 0 0 0 0   0 0 0 0 0  0 0 0 0.0517612271 0" type="matrix" in="shadowBlurOuter1"></feColorMatrix>
        </filter>
        <circle id="path-15" cx="7" cy="7" r="7"></circle>
        <filter x="-53.6%" y="-32.1%" width="207.1%" height="207.1%" filterUnits="objectBoundingBox" id="filter-16">
            <feOffset dx="0" dy="3" in="SourceAlpha" result="shadowOffsetOuter1"></feOffset>
            <feGaussianBlur stdDeviation="2" in="shadowOffsetOuter1" result="shadowBlurOuter1"></feGaussianBlur>
            <feComposite in="shadowBlurOuter1" in2="SourceAlpha" operator="out" result="shadowBlurOuter1"></feComposite>
            <feColorMatrix values="0 0 0 0 0   0 0 0 0 0   0 0 0 0 0  0 0 0 0.0955341046 0" type="matrix" in="shadowBlurOuter1"></feColorMatrix>
        </filter>
    </defs>
    <g id="theme_default" stroke="none" stroke-width="1" fill="none" fill-rule="evenodd">
        <g id="编组-8">
            <g id="矩形">
                <use fill="#FEFEFE" fill-rule="evenodd" xlink:href="#path-1"></use>
                <use fill="black" fill-opacity="1" filter="url(#filter-2)" xlink:href="#path-1"></use>
                <rect stroke="#FFFFFF" stroke-width="1" stroke-linejoin="square" x="0.5" y="0.5" width="334" height="406" rx="10"></rect>
            </g>
            <g id="矩形">
                <use fill="black" fill-opacity="1" filter="url(#filter-4)" xlink:href="#path-3"></use>
                <rect stroke-opacity="0.702605988" stroke="#FFFFFF" stroke-width="1" stroke-linejoin="square" fill-opacity="0.401423528" fill="#FFFFFF" fill-rule="evenodd" x="13.5" y="36.5" width="309" height="69" rx="10"></rect>
            </g>
            <g id="编组-6" transform="translate(13.000000, 151.000000)">
                <g id="矩形">
                    <use fill="black" fill-opacity="1" filter="url(#filter-6)" xlink:href="#path-5"></use>
                    <rect stroke-opacity="0.696266868" stroke="#FFFFFF" stroke-width="1" stroke-linejoin="square" fill-opacity="0.401423528" fill="#FFFFFF" fill-rule="evenodd" x="0.5" y="0.5" width="309" height="151" rx="10"></rect>
                </g>
                <text id="n.-招呼，问候；（Hello）（法、印" font-family="ArialMT, Arial" font-size="12" font-weight="normal" letter-spacing="0.695532" fill="#242424">
                    <tspan x="7" y="94">n. </tspan>
                    <tspan x="22.4283929" y="94" font-family="PingFangSC-Regular, PingFang SC">招呼，问候；（</tspan>
                    <tspan x="111.297117" y="94">Hello</tspan>
                    <tspan x="142.12048" y="94" font-family="PingFangSC-Regular, PingFang SC">）（法、印、美、俄）埃洛</tspan>
                    <tspan x="7" y="111" font-family="PingFangSC-Regular, PingFang SC">（人名）</tspan>
                </text>
                <text id="int.-喂，你好（用于问候或打招呼）；" font-family="ArialMT, Arial" font-size="12" font-weight="normal" letter-spacing="0.695532" fill="#242424">
                    <tspan x="10" y="18">int. </tspan>
                    <tspan x="32.8194569" y="18" font-family="PingFangSC-Regular, PingFang SC">喂，你好（用于问候或打招呼）；喂，你好（打</tspan>
                    <tspan x="10" y="35" font-family="PingFangSC-Regular, PingFang SC">电话时的招呼语）；喂，你好（引起别人注意的招</tspan>
                    <tspan x="10" y="52" font-family="PingFangSC-Regular, PingFang SC">呼语）；</tspan>
                    <tspan x="60.782128" y="52">&lt;</tspan>
                    <tspan x="68.4854725" y="52" font-family="PingFangSC-Regular, PingFang SC">非正式</tspan>
                    <tspan x="106.572069" y="52">&gt;</tspan>
                    <tspan x="114.275413" y="52" font-family="PingFangSC-Regular, PingFang SC">喂，嘿</tspan>
                    <tspan x="152.362009" y="52"> (</tspan>
                    <tspan x="161.083151" y="52" font-family="PingFangSC-Regular, PingFang SC">认为别人说了蠢话或分</tspan>
                    <tspan x="10" y="69" font-family="PingFangSC-Regular, PingFang SC">心</tspan>
                    <tspan x="22.695532" y="69">)</tspan>
                    <tspan x="27.3871578" y="69" font-family="PingFangSC-Regular, PingFang SC">；</tspan>
                    <tspan x="40.0826898" y="69">&lt;</tspan>
                    <tspan x="47.7860343" y="69" font-family="PingFangSC-Regular, PingFang SC">英，旧</tspan>
                    <tspan x="85.8726303" y="69">&gt;</tspan>
                    <tspan x="93.5759748" y="69" font-family="PingFangSC-Regular, PingFang SC">嘿（表示惊讶）</tspan>
                </text>
                <text id="v.-说（或大声说）“喂”；打招呼" font-family="ArialMT, Arial" font-size="12" font-weight="normal" letter-spacing="0.695532" fill="#242424">
                    <tspan x="7" y="136">v. </tspan>
                    <tspan x="20.8639398" y="136" font-family="PingFangSC-Regular, PingFang SC">说（或大声说）</tspan>
                    <tspan x="109.732664" y="136">“</tspan>
                    <tspan x="114.42429" y="136" font-family="PingFangSC-Regular, PingFang SC">喂</tspan>
                    <tspan x="127.119822" y="136">”</tspan>
                    <tspan x="131.811447" y="136" font-family="PingFangSC-Regular, PingFang SC">；打招呼</tspan>
                </text>
                <line x1="9.5" y1="79.5" x2="298.5" y2="79.5" id="直线" stroke="#E2E2E2" stroke-linecap="round"></line>
                <line x1="9.5" y1="121.5" x2="298.5" y2="121.5" id="直线" stroke="#E2E2E2" stroke-linecap="round"></line>
            </g>
            <g id="编组-5" transform="translate(13.000000, 309.000000)">
                <g id="矩形">
                    <use fill="black" fill-opacity="1" filter="url(#filter-8)" xlink:href="#path-7"></use>
                    <rect stroke-opacity="0.699816297" stroke="#FFFFFF" stroke-width="1" stroke-linejoin="square" fill-opacity="0.401423528" fill="#FFFFFF" fill-rule="evenodd" x="0.5" y="0.5" width="309" height="46" rx="10"></rect>
                </g>
                <text id="复数-hellos-第三人称单数-hel" font-family="PingFangSC-Regular, PingFang SC" font-size="10" font-weight="normal" letter-spacing="0.57961">
                    <tspan x="7" y="17" fill="#888888">复数</tspan>
                    <tspan x="28.15922" y="17" font-size="12" letter-spacing="0.695532" fill="#242424"> </tspan>
                    <tspan x="32.850752" y="17" font-family="ArialMT, Arial" font-size="12" letter-spacing="0.695532" fill="#242424">hellos  </tspan>
                    <tspan x="76.4364924" y="17" fill="#888888">第三人称单数</tspan>
                    <tspan x="139.914152" y="17" font-size="12" letter-spacing="0.695532" fill="#242424"> </tspan>
                    <tspan x="144.605684" y="17" font-family="ArialMT, Arial" font-size="12" letter-spacing="0.695532" fill="#242424">helloes  </tspan>
                    <tspan x="195.560785" y="17" fill="#888888">现在分词</tspan>
                    <tspan x="237.879225" y="17" font-size="12" letter-spacing="0.695532" fill="#242424"> </tspan>
                    <tspan x="242.570757" y="17" font-family="ArialMT, Arial" font-size="12" letter-spacing="0.695532" fill="#242424">helloing  </tspan>
                    <tspan x="7" y="34" fill="#888888">过去式</tspan>
                    <tspan x="38.73883" y="34" font-size="12" letter-spacing="0.695532" fill="#242424"> </tspan>
                    <tspan x="43.430362" y="34" font-family="ArialMT, Arial" font-size="12" letter-spacing="0.695532" fill="#242424">helloed  </tspan>
                    <tspan x="95.0592906" y="34" fill="#888888">过去分词</tspan>
                    <tspan x="137.377731" y="34" font-size="12" letter-spacing="0.695532" fill="#242424"> </tspan>
                    <tspan x="142.069263" y="34" font-family="ArialMT, Arial" font-size="12" letter-spacing="0.695532" fill="#242424">helloed</tspan>
                </text>
            </g>
            <g id="编组-4" transform="translate(13.000000, 362.000000)">
                <g id="矩形">
                    <use fill="black" fill-opacity="1" filter="url(#filter-10)" xlink:href="#path-9"></use>
                    <rect stroke-opacity="0.699428745" stroke="#FFFFFF" stroke-width="1" stroke-linejoin="square" fill-opacity="0.401423528" fill="#FFFFFF" fill-rule="evenodd" x="0.5" y="0.5" width="309" height="31" rx="10"></rect>
                </g>
                <g id="编组-9" transform="translate(156.000000, 9.000000)">
                    <text id="考研" font-family="PingFangSC-Regular, PingFang SC" font-size="10" font-weight="normal" letter-spacing="0.57961" fill="#242424">
                        <tspan x="5" y="11">考研</tspan>
                    </text>
                    <rect id="矩形" fill="#3C49FF" x="0" y="0" width="2" height="14" rx="1"></rect>
                </g>
                <g id="编组-10" transform="translate(116.000000, 9.000000)">
                    <text id="CET6" font-family="PingFangSC-Regular, PingFang SC" font-size="10" font-weight="normal" letter-spacing="0.57961" fill="#242424">
                        <tspan x="5" y="11">CET6</tspan>
                    </text>
                    <rect id="矩形" fill="#3C49FF" x="0" y="0" width="2" height="14" rx="1"></rect>
                </g>
                <g id="编组-11" transform="translate(75.000000, 9.000000)">
                    <text id="CET4" font-family="PingFangSC-Regular, PingFang SC" font-size="10" font-weight="normal" letter-spacing="0.57961" fill="#242424">
                        <tspan x="5" y="11">CET4</tspan>
                    </text>
                    <rect id="矩形" fill="#3C49FF" x="0" y="0" width="2" height="14" rx="1"></rect>
                </g>
                <g id="编组-12" transform="translate(42.000000, 9.000000)">
                    <text id="高中" font-family="PingFangSC-Regular, PingFang SC" font-size="10" font-weight="normal" letter-spacing="0.57961" fill="#242424">
                        <tspan x="5" y="11">高中</tspan>
                    </text>
                    <rect id="矩形" fill="#3C49FF" x="0" y="0" width="2" height="14" rx="1"></rect>
                </g>
                <g id="编组-13" transform="translate(9.000000, 9.000000)">
                    <text id="初中" font-family="PingFangSC-Regular, PingFang SC" font-size="10" font-weight="normal" letter-spacing="0.57961" fill="#242424">
                        <tspan x="5" y="11">初中</tspan>
                    </text>
                    <rect id="矩形" fill="#3C49FF" x="0" y="0" width="2" height="14" rx="1"></rect>
                </g>
            </g>
            <text id="hello" font-family="ArialMT, Arial" font-size="14" font-weight="normal" letter-spacing="0.811454" fill="#242424">
                <tspan x="27.1818142" y="60">hello</tspan>
            </text>
            <g id="编组-2" transform="translate(13.000000, 116.000000)">
                <g id="矩形">
                    <use fill="black" fill-opacity="1" filter="url(#filter-12)" xlink:href="#path-11"></use>
                    <rect stroke-opacity="0.701736984" stroke="#FFFFFF" stroke-width="1" stroke-linejoin="square" fill-opacity="0.39663803" fill="#FFFFFF" fill-rule="evenodd" x="0.5" y="0.5" width="100" height="28" rx="14"></rect>
                </g>
                <g id="编组" transform="translate(74.000000, 8.000000)" fill-rule="nonzero">
                    <path d="M2.52631579,4.37894737 L3.9829303,4.37894737 L3.9829303,8.75789474 L2.52631579,8.75789474 L2.52631579,4.37894737 Z M13.4502183,1.81430974 C15.0704979,3.00836399 16,4.79707935 16,6.72144684 C16,8.66474254 15.0552602,10.4660767 13.4078912,11.6617083 C13.2893755,11.7468852 13.1471566,11.7894737 13.0083239,11.7894737 C12.8153125,11.7894737 12.6223011,11.7090288 12.49532,11.5560258 C12.2752193,11.2926083 12.3260118,10.9124669 12.6087565,10.705834 C13.937826,9.74049551 14.6997129,8.28775579 14.6997129,6.72144684 C14.6997129,5.1709114 13.9496775,3.72763578 12.6443112,2.76387468 C12.3632596,2.55566443 12.3158533,2.17552298 12.537647,1.91368282 C12.7611339,1.65184265 13.1691667,1.60767684 13.4502183,1.81430974 Z M12.1123451,4.47099739 C12.7806826,5.1100577 13.1482682,5.95380481 13.1482682,6.84755174 C13.1482682,7.73817369 12.7823534,8.57879581 12.1190285,9.21785612 C11.9937152,9.3397307 11.8266308,9.40066799 11.6595464,9.40066799 C11.4974746,9.40066799 11.3370736,9.34441818 11.2117603,9.23035607 C10.957792,8.99910687 10.9511087,8.61942067 11.1983935,8.38192148 C11.6278004,7.9678604 11.8650602,7.42411227 11.8650602,6.84755174 C11.8650602,6.26942873 11.6261295,5.7241181 11.1950518,5.31005701 C10.947767,5.07255783 10.9527795,4.69287163 11.2050769,4.46162242 C11.4590452,4.23037322 11.8650602,4.2350607 12.1123451,4.47099739 Z" id="形状结合" fill="#3C49FF"></path>
                    <path d="M8.91631579,13.3750003 L3.03157895,10.1052747 L1.00432857,10.1052747 C0.557486467,10.1052747 0,9.72698653 0,9.26317233 L0,4.21055807 C0,3.74509914 0.557486467,3.3684557 1.00432857,3.3684557 L3.03157895,3.3684557 L8.91631579,0.0987300659 C9.16736842,-0.0394273552 9.46894737,-0.0328484303 9.71368421,0.120111572 C9.95684211,0.271426842 10.1052632,0.546096953 10.1052632,0.84214857 L10.1052632,12.6315818 C10.1052632,12.9276335 9.95684211,13.2023036 9.71368421,13.3536188 C9.58421053,13.4325659 9.44052632,13.4736842 9.29684211,13.4736842 C9.16578947,13.4736842 9.03631579,13.4407896 8.91631579,13.3750003 Z M1.61684211,8.42106995 L3.23368421,8.42106995 C3.36631579,8.42106995 3.49736842,8.45560931 3.61421053,8.51975383 L8.48842105,11.2269814 L8.48842105,2.24510429 L3.61421053,4.95233185 C3.49736842,5.01812109 3.36631579,5.05101572 3.23368421,5.05101572 L1.61684211,5.05101572 L1.61684211,8.42106995 Z" id="形状" fill="#BBBBBB"></path>
                </g>
                <text id="美/heˈloʊ/" font-family="PingFangSC-Regular, PingFang SC" font-size="12" font-weight="normal" letter-spacing="0.695532" fill="#242424">
                    <tspan x="9.745106" y="19">美</tspan>
                    <tspan x="22.440638" y="19" font-family="ArialMT, Arial">/he</tspan>
                    <tspan x="41.2088746" y="19" font-family="Helvetica">ˈ</tspan>
                    <tspan x="44.1954223" y="19" font-family="ArialMT, Arial">lo</tspan>
                    <tspan x="54.92633" y="19" font-family="Helvetica">ʊ</tspan>
                    <tspan x="62.2253776" y="19" font-family="ArialMT, Arial">/</tspan>
                </text>
            </g>
            <g id="编组-3" transform="translate(124.000000, 116.000000)">
                <g id="矩形">
                    <use fill="black" fill-opacity="1" filter="url(#filter-14)" xlink:href="#path-13"></use>
                    <rect stroke-opacity="0.703541576" stroke="#FFFFFF" stroke-width="1" stroke-linejoin="square" fill-opacity="0.399852833" fill="#FFFFFF" fill-rule="evenodd" x="0.5" y="0.5" width="103" height="28" rx="14"></rect>
                </g>
                <g id="编组" transform="translate(77.000000, 8.000000)" fill-rule="nonzero">
                    <path d="M2.52631579,4.37894737 L3.9829303,4.37894737 L3.9829303,8.75789474 L2.52631579,8.75789474 L2.52631579,4.37894737 Z M13.4502183,1.81430974 C15.0704979,3.00836399 16,4.79707935 16,6.72144684 C16,8.66474254 15.0552602,10.4660767 13.4078912,11.6617083 C13.2893755,11.7468852 13.1471566,11.7894737 13.0083239,11.7894737 C12.8153125,11.7894737 12.6223011,11.7090288 12.49532,11.5560258 C12.2752193,11.2926083 12.3260118,10.9124669 12.6087565,10.705834 C13.937826,9.74049551 14.6997129,8.28775579 14.6997129,6.72144684 C14.6997129,5.1709114 13.9496775,3.72763578 12.6443112,2.76387468 C12.3632596,2.55566443 12.3158533,2.17552298 12.537647,1.91368282 C12.7611339,1.65184265 13.1691667,1.60767684 13.4502183,1.81430974 Z M12.1123451,4.47099739 C12.7806826,5.1100577 13.1482682,5.95380481 13.1482682,6.84755174 C13.1482682,7.73817369 12.7823534,8.57879581 12.1190285,9.21785612 C11.9937152,9.3397307 11.8266308,9.40066799 11.6595464,9.40066799 C11.4974746,9.40066799 11.3370736,9.34441818 11.2117603,9.23035607 C10.957792,8.99910687 10.9511087,8.61942067 11.1983935,8.38192148 C11.6278004,7.9678604 11.8650602,7.42411227 11.8650602,6.84755174 C11.8650602,6.26942873 11.6261295,5.7241181 11.1950518,5.31005701 C10.947767,5.07255783 10.9527795,4.69287163 11.2050769,4.46162242 C11.4590452,4.23037322 11.8650602,4.2350607 12.1123451,4.47099739 Z" id="形状结合" fill="#3C49FF"></path>
                    <path d="M8.91631579,13.3750003 L3.03157895,10.1052747 L1.00432857,10.1052747 C0.557486467,10.1052747 0,9.72698653 0,9.26317233 L0,4.21055807 C0,3.74509914 0.557486467,3.3684557 1.00432857,3.3684557 L3.03157895,3.3684557 L8.91631579,0.0987300659 C9.16736842,-0.0394273552 9.46894737,-0.0328484303 9.71368421,0.120111572 C9.95684211,0.271426842 10.1052632,0.546096953 10.1052632,0.84214857 L10.1052632,12.6315818 C10.1052632,12.9276335 9.95684211,13.2023036 9.71368421,13.3536188 C9.58421053,13.4325659 9.44052632,13.4736842 9.29684211,13.4736842 C9.16578947,13.4736842 9.03631579,13.4407896 8.91631579,13.3750003 Z M1.61684211,8.42106995 L3.23368421,8.42106995 C3.36631579,8.42106995 3.49736842,8.45560931 3.61421053,8.51975383 L8.48842105,11.2269814 L8.48842105,2.24510429 L3.61421053,4.95233185 C3.49736842,5.01812109 3.36631579,5.05101572 3.23368421,5.05101572 L1.61684211,5.05101572 L1.61684211,8.42106995 Z" id="形状" fill="#BBBBBB"></path>
                </g>
                <text id="英/həˈləʊ/" font-family="PingFangSC-Regular, PingFang SC" font-size="12" font-weight="normal" letter-spacing="0.695532" fill="#242424">
                    <tspan x="11.745106" y="19">英</tspan>
                    <tspan x="24.440638" y="19" font-family="ArialMT, Arial">/h</tspan>
                    <tspan x="35.8395145" y="19" font-family="Helvetica">əˈ</tspan>
                    <tspan x="46.1954223" y="19" font-family="ArialMT, Arial">l</tspan>
                    <tspan x="49.5569699" y="19" font-family="Helvetica">əʊ</tspan>
                    <tspan x="64.2253776" y="19" font-family="ArialMT, Arial">/</tspan>
                </text>
            </g>
            <g id="编组-9" transform="translate(295.000000, 64.000000)">
                <g id="椭圆形">
                    <use fill="black" fill-opacity="1" filter="url(#filter-16)" xlink:href="#path-15"></use>
                    <use fill-opacity="0.297325721" fill="#B1B1B1" fill-rule="evenodd" xlink:href="#path-15"></use>
                </g>
                <path d="M7,2.625 C7.40270763,2.625 7.72916667,2.95145904 7.72916667,3.35416667 L7.729,6.27 L10.6458333,6.27083333 C11.048541,6.27083333 11.375,6.59729237 11.375,7 C11.375,7.40270763 11.048541,7.72916667 10.6458333,7.72916667 L7.729,7.729 L7.72916667,10.6458333 C7.72916667,11.048541 7.40270763,11.375 7,11.375 C6.59729237,11.375 6.27083333,11.048541 6.27083333,10.6458333 L6.27,7.729 L3.35416667,7.72916667 C2.95145904,7.72916667 2.625,7.40270763 2.625,7 C2.625,6.59729237 2.95145904,6.27083333 3.35416667,6.27083333 L6.27,6.27 L6.27083333,3.35416667 C6.27083333,2.95145904 6.59729237,2.625 7,2.625 Z" id="形状结合" fill="#FFFFFF" transform="translate(7.000000, 7.000000) rotate(45.000000) translate(-7.000000, -7.000000) "></path>
            </g>
            <g id="编组-7" transform="translate(13.000000, 9.000000)">
                <circle id="椭圆形" fill="#FF4A4A" cx="7" cy="7" r="7"></circle>
                <circle id="椭圆形" fill="#FFC32C" cx="27" cy="7" r="7"></circle>
                <circle id="椭圆形" fill="#28C840" cx="47" cy="7" r="7"></circle>
            </g>
        </g>
    </g>
</svg>