<?xml version="1.0" encoding="UTF-8"?>
<svg width="335px" height="407px" viewBox="0 0 335 407" version="1.1" xmlns="http://www.w3.org/2000/svg" xmlns:xlink="http://www.w3.org/1999/xlink">
    <title>theme_cartoon</title>
    <defs>
        <rect id="path-1" x="0" y="0" width="335" height="407"></rect>
        <filter x="-0.1%" y="-0.1%" width="100.3%" height="100.2%" filterUnits="objectBoundingBox" id="filter-2">
            <feOffset dx="1" dy="1" in="SourceAlpha" result="shadowOffsetInner1"></feOffset>
            <feComposite in="shadowOffsetInner1" in2="SourceAlpha" operator="arithmetic" k2="-1" k3="1" result="shadowInnerInner1"></feComposite>
            <feColorMatrix values="0 0 0 0 1   0 0 0 0 1   0 0 0 0 1  0 0 0 0.889279666 0" type="matrix" in="shadowInnerInner1"></feColorMatrix>
        </filter>
        <path d="M302,64 C305.865993,64 309,67.1340068 309,71 C309,74.8659932 305.865993,78 302,78 C298.134007,78 295,74.8659932 295,71 C295,67.1340068 298.134007,64 302,64 Z M299.937605,67.9064078 C299.652848,67.6216505 299.191165,67.6216505 298.906408,67.9064078 C298.621651,68.1911651 298.621651,68.6528479 298.906408,68.9376052 L298.906408,68.9376052 L300.968331,70.9992929 L298.906408,73.0623948 C298.621651,73.3471521 298.621651,73.8088349 298.906408,74.0935922 C299.191165,74.3783495 299.652848,74.3783495 299.937605,74.0935922 L299.937605,74.0935922 L302,72.0309617 L304.062395,74.0935922 C304.347152,74.3783495 304.808835,74.3783495 305.093592,74.0935922 C305.378349,73.8088349 305.378349,73.3471521 305.093592,73.0623948 L305.093592,73.0623948 L303.031669,70.9992929 L305.093592,68.9376052 C305.378349,68.6528479 305.378349,68.1911651 305.093592,67.9064078 C304.808835,67.6216505 304.347152,67.6216505 304.062395,67.9064078 L304.062395,67.9064078 L302,69.9676241 Z" id="path-3"></path>
        <filter x="-67.9%" y="-46.4%" width="235.7%" height="235.7%" filterUnits="objectBoundingBox" id="filter-4">
            <feMorphology radius="2" operator="dilate" in="SourceAlpha" result="shadowSpreadOuter1"></feMorphology>
            <feOffset dx="0" dy="3" in="shadowSpreadOuter1" result="shadowOffsetOuter1"></feOffset>
            <feGaussianBlur stdDeviation="2" in="shadowOffsetOuter1" result="shadowBlurOuter1"></feGaussianBlur>
            <feComposite in="shadowBlurOuter1" in2="SourceAlpha" operator="out" result="shadowBlurOuter1"></feComposite>
            <feColorMatrix values="0 0 0 0 0   0 0 0 0 0   0 0 0 0 0  0 0 0 0.0955341046 0" type="matrix" in="shadowBlurOuter1"></feColorMatrix>
        </filter>
    </defs>
    <g id="theme_cartoon" stroke="none" stroke-width="1" fill="none" fill-rule="evenodd">
        <g id="编组-8">
            <g id="矩形">
                <use fill="#FFFFFF" fill-rule="evenodd" xlink:href="#path-1"></use>
                <use fill="black" fill-opacity="1" filter="url(#filter-2)" xlink:href="#path-1"></use>
                <rect stroke="#242424" stroke-width="2" stroke-linejoin="square" x="1" y="1" width="333" height="405"></rect>
            </g>
            <rect id="矩形" stroke="#242424" stroke-width="2" fill-opacity="0.401423528" fill="#FFFFFF" x="14" y="37" width="308" height="68"></rect>
            <g id="编组-6" transform="translate(13.000000, 151.000000)">
                <rect id="矩形" stroke="#242424" stroke-width="2" fill-opacity="0.401423528" fill="#FFFFFF" x="1" y="1" width="308" height="150"></rect>
                <text id="n.-招呼，问候；（Hello）（法、印" font-family="ArialMT, Arial" font-size="12" font-weight="normal" letter-spacing="0.695532" fill="#242424">
                    <tspan x="7" y="94">n. </tspan>
                    <tspan x="22.4283929" y="94" font-family="PingFangSC-Regular, PingFang SC">招呼，问候；（</tspan>
                    <tspan x="111.297117" y="94">Hello</tspan>
                    <tspan x="142.12048" y="94" font-family="PingFangSC-Regular, PingFang SC">）（法、印、美、俄）埃洛</tspan>
                    <tspan x="7" y="111" font-family="PingFangSC-Regular, PingFang SC">（人名）</tspan>
                </text>
                <text id="int.-喂，你好（用于问候或打招呼）；" font-family="ArialMT, Arial" font-size="12" font-weight="normal" letter-spacing="0.695532" fill="#242424">
                    <tspan x="10" y="18">int. </tspan>
                    <tspan x="32.8194569" y="18" font-family="PingFangSC-Regular, PingFang SC">喂，你好（用于问候或打招呼）；喂，你好（打</tspan>
                    <tspan x="10" y="35" font-family="PingFangSC-Regular, PingFang SC">电话时的招呼语）；喂，你好（引起别人注意的招</tspan>
                    <tspan x="10" y="52" font-family="PingFangSC-Regular, PingFang SC">呼语）；</tspan>
                    <tspan x="60.782128" y="52">&lt;</tspan>
                    <tspan x="68.4854725" y="52" font-family="PingFangSC-Regular, PingFang SC">非正式</tspan>
                    <tspan x="106.572069" y="52">&gt;</tspan>
                    <tspan x="114.275413" y="52" font-family="PingFangSC-Regular, PingFang SC">喂，嘿</tspan>
                    <tspan x="152.362009" y="52"> (</tspan>
                    <tspan x="161.083151" y="52" font-family="PingFangSC-Regular, PingFang SC">认为别人说了蠢话或分</tspan>
                    <tspan x="10" y="69" font-family="PingFangSC-Regular, PingFang SC">心</tspan>
                    <tspan x="22.695532" y="69">)</tspan>
                    <tspan x="27.3871578" y="69" font-family="PingFangSC-Regular, PingFang SC">；</tspan>
                    <tspan x="40.0826898" y="69">&lt;</tspan>
                    <tspan x="47.7860343" y="69" font-family="PingFangSC-Regular, PingFang SC">英，旧</tspan>
                    <tspan x="85.8726303" y="69">&gt;</tspan>
                    <tspan x="93.5759748" y="69" font-family="PingFangSC-Regular, PingFang SC">嘿（表示惊讶）</tspan>
                </text>
                <text id="v.-说（或大声说）“喂”；打招呼" font-family="ArialMT, Arial" font-size="12" font-weight="normal" letter-spacing="0.695532" fill="#242424">
                    <tspan x="7" y="136">v. </tspan>
                    <tspan x="20.8639398" y="136" font-family="PingFangSC-Regular, PingFang SC">说（或大声说）</tspan>
                    <tspan x="109.732664" y="136">“</tspan>
                    <tspan x="114.42429" y="136" font-family="PingFangSC-Regular, PingFang SC">喂</tspan>
                    <tspan x="127.119822" y="136">”</tspan>
                    <tspan x="131.811447" y="136" font-family="PingFangSC-Regular, PingFang SC">；打招呼</tspan>
                </text>
                <line x1="9.5" y1="79.5" x2="298.5" y2="79.5" id="直线" stroke="#E2E2E2" stroke-linecap="round"></line>
                <line x1="9.5" y1="121.5" x2="298.5" y2="121.5" id="直线" stroke="#E2E2E2" stroke-linecap="round"></line>
            </g>
            <g id="编组-5" transform="translate(13.000000, 309.000000)">
                <rect id="矩形" stroke="#242424" stroke-width="2" fill-opacity="0.401423528" fill="#FFFFFF" x="1" y="1" width="308" height="45"></rect>
                <text id="复数-hellos-第三人称单数-hel" font-family="PingFangSC-Regular, PingFang SC" font-size="10" font-weight="normal" letter-spacing="0.57961">
                    <tspan x="7" y="17" fill="#888888">复数</tspan>
                    <tspan x="28.15922" y="17" font-size="12" letter-spacing="0.695532" fill="#242424"> </tspan>
                    <tspan x="32.850752" y="17" font-family="ArialMT, Arial" font-size="12" letter-spacing="0.695532" fill="#242424">hellos  </tspan>
                    <tspan x="76.4364924" y="17" fill="#888888">第三人称单数</tspan>
                    <tspan x="139.914152" y="17" font-size="12" letter-spacing="0.695532" fill="#242424"> </tspan>
                    <tspan x="144.605684" y="17" font-family="ArialMT, Arial" font-size="12" letter-spacing="0.695532" fill="#242424">helloes  </tspan>
                    <tspan x="195.560785" y="17" fill="#888888">现在分词</tspan>
                    <tspan x="237.879225" y="17" font-size="12" letter-spacing="0.695532" fill="#242424"> </tspan>
                    <tspan x="242.570757" y="17" font-family="ArialMT, Arial" font-size="12" letter-spacing="0.695532" fill="#242424">helloing  </tspan>
                    <tspan x="7" y="34" fill="#888888">过去式</tspan>
                    <tspan x="38.73883" y="34" font-size="12" letter-spacing="0.695532" fill="#242424"> </tspan>
                    <tspan x="43.430362" y="34" font-family="ArialMT, Arial" font-size="12" letter-spacing="0.695532" fill="#242424">helloed  </tspan>
                    <tspan x="95.0592906" y="34" fill="#888888">过去分词</tspan>
                    <tspan x="137.377731" y="34" font-size="12" letter-spacing="0.695532" fill="#242424"> </tspan>
                    <tspan x="142.069263" y="34" font-family="ArialMT, Arial" font-size="12" letter-spacing="0.695532" fill="#242424">helloed</tspan>
                </text>
            </g>
            <g id="编组-4" transform="translate(13.000000, 362.000000)">
                <rect id="矩形" stroke="#242424" stroke-width="2" fill-opacity="0.401423528" fill="#FFFFFF" x="1" y="1" width="308" height="30"></rect>
                <g id="编组-9" transform="translate(156.000000, 9.000000)">
                    <text id="考研" font-family="PingFangSC-Regular, PingFang SC" font-size="10" font-weight="normal" letter-spacing="0.57961" fill="#242424">
                        <tspan x="5" y="11">考研</tspan>
                    </text>
                    <rect id="矩形" fill="#E9D7FF" x="0" y="0" width="2" height="14" rx="1"></rect>
                </g>
                <g id="编组-10" transform="translate(116.000000, 9.000000)">
                    <text id="CET6" font-family="PingFangSC-Regular, PingFang SC" font-size="10" font-weight="normal" letter-spacing="0.57961" fill="#242424">
                        <tspan x="5" y="11">CET6</tspan>
                    </text>
                    <rect id="矩形" fill="#E9D7FF" x="0" y="0" width="2" height="14" rx="1"></rect>
                </g>
                <g id="编组-11" transform="translate(75.000000, 9.000000)">
                    <text id="CET4" font-family="PingFangSC-Regular, PingFang SC" font-size="10" font-weight="normal" letter-spacing="0.57961" fill="#242424">
                        <tspan x="5" y="11">CET4</tspan>
                    </text>
                    <rect id="矩形" fill="#E9D7FF" x="0" y="0" width="2" height="14" rx="1"></rect>
                </g>
                <g id="编组-12" transform="translate(42.000000, 9.000000)">
                    <text id="高中" font-family="PingFangSC-Regular, PingFang SC" font-size="10" font-weight="normal" letter-spacing="0.57961" fill="#242424">
                        <tspan x="5" y="11">高中</tspan>
                    </text>
                    <rect id="矩形" fill="#E9D7FF" x="0" y="0" width="2" height="14" rx="1"></rect>
                </g>
                <g id="编组-13" transform="translate(9.000000, 9.000000)">
                    <text id="初中" font-family="PingFangSC-Regular, PingFang SC" font-size="10" font-weight="normal" letter-spacing="0.57961" fill="#242424">
                        <tspan x="5" y="11">初中</tspan>
                    </text>
                    <rect id="矩形" fill="#E9D7FF" x="0" y="0" width="2" height="14" rx="1"></rect>
                </g>
            </g>
            <text id="hello" font-family="ArialMT, Arial" font-size="14" font-weight="normal" letter-spacing="0.811454" fill="#242424">
                <tspan x="27.1818142" y="60">hello</tspan>
            </text>
            <g id="编组-2" transform="translate(13.000000, 116.000000)">
                <rect id="矩形" stroke="#242424" stroke-width="2" fill="#E9D7FF" x="1" y="1" width="99" height="27"></rect>
                <g id="编组" transform="translate(74.000000, 8.000000)" fill-rule="nonzero">
                    <path d="M2.52631579,4.37894737 L3.9829303,4.37894737 L3.9829303,8.75789474 L2.52631579,8.75789474 L2.52631579,4.37894737 Z M13.4502183,1.81430974 C15.0704979,3.00836399 16,4.79707935 16,6.72144684 C16,8.66474254 15.0552602,10.4660767 13.4078912,11.6617083 C13.2893755,11.7468852 13.1471566,11.7894737 13.0083239,11.7894737 C12.8153125,11.7894737 12.6223011,11.7090288 12.49532,11.5560258 C12.2752193,11.2926083 12.3260118,10.9124669 12.6087565,10.705834 C13.937826,9.74049551 14.6997129,8.28775579 14.6997129,6.72144684 C14.6997129,5.1709114 13.9496775,3.72763578 12.6443112,2.76387468 C12.3632596,2.55566443 12.3158533,2.17552298 12.537647,1.91368282 C12.7611339,1.65184265 13.1691667,1.60767684 13.4502183,1.81430974 Z M12.1123451,4.47099739 C12.7806826,5.1100577 13.1482682,5.95380481 13.1482682,6.84755174 C13.1482682,7.73817369 12.7823534,8.57879581 12.1190285,9.21785612 C11.9937152,9.3397307 11.8266308,9.40066799 11.6595464,9.40066799 C11.4974746,9.40066799 11.3370736,9.34441818 11.2117603,9.23035607 C10.957792,8.99910687 10.9511087,8.61942067 11.1983935,8.38192148 C11.6278004,7.9678604 11.8650602,7.42411227 11.8650602,6.84755174 C11.8650602,6.26942873 11.6261295,5.7241181 11.1950518,5.31005701 C10.947767,5.07255783 10.9527795,4.69287163 11.2050769,4.46162242 C11.4590452,4.23037322 11.8650602,4.2350607 12.1123451,4.47099739 Z" id="形状结合" fill="#565656"></path>
                    <path d="M8.91631579,13.3750003 L3.03157895,10.1052747 L1.00432857,10.1052747 C0.557486467,10.1052747 0,9.72698653 0,9.26317233 L0,4.21055807 C0,3.74509914 0.557486467,3.3684557 1.00432857,3.3684557 L3.03157895,3.3684557 L8.91631579,0.0987300659 C9.16736842,-0.0394273552 9.46894737,-0.0328484303 9.71368421,0.120111572 C9.95684211,0.271426842 10.1052632,0.546096953 10.1052632,0.84214857 L10.1052632,12.6315818 C10.1052632,12.9276335 9.95684211,13.2023036 9.71368421,13.3536188 C9.58421053,13.4325659 9.44052632,13.4736842 9.29684211,13.4736842 C9.16578947,13.4736842 9.03631579,13.4407896 8.91631579,13.3750003 Z M1.61684211,8.42106995 L3.23368421,8.42106995 C3.36631579,8.42106995 3.49736842,8.45560931 3.61421053,8.51975383 L8.48842105,11.2269814 L8.48842105,2.24510429 L3.61421053,4.95233185 C3.49736842,5.01812109 3.36631579,5.05101572 3.23368421,5.05101572 L1.61684211,5.05101572 L1.61684211,8.42106995 Z" id="形状" fill="#101010"></path>
                </g>
                <text id="美/heˈloʊ/" font-family="PingFangSC-Regular, PingFang SC" font-size="12" font-weight="normal" letter-spacing="0.695532" fill="#242424">
                    <tspan x="9.745106" y="19">美</tspan>
                    <tspan x="22.440638" y="19" font-family="ArialMT, Arial">/he</tspan>
                    <tspan x="41.2088746" y="19" font-family="Helvetica">ˈ</tspan>
                    <tspan x="44.1954223" y="19" font-family="ArialMT, Arial">lo</tspan>
                    <tspan x="54.92633" y="19" font-family="Helvetica">ʊ</tspan>
                    <tspan x="62.2253776" y="19" font-family="ArialMT, Arial">/</tspan>
                </text>
            </g>
            <g id="编组-3" transform="translate(124.000000, 116.000000)">
                <rect id="矩形" stroke="#242424" stroke-width="2" fill="#D5ECFC" x="1" y="1" width="102" height="27"></rect>
                <g id="编组" transform="translate(77.000000, 8.000000)" fill-rule="nonzero">
                    <path d="M2.52631579,4.37894737 L3.9829303,4.37894737 L3.9829303,8.75789474 L2.52631579,8.75789474 L2.52631579,4.37894737 Z M13.4502183,1.81430974 C15.0704979,3.00836399 16,4.79707935 16,6.72144684 C16,8.66474254 15.0552602,10.4660767 13.4078912,11.6617083 C13.2893755,11.7468852 13.1471566,11.7894737 13.0083239,11.7894737 C12.8153125,11.7894737 12.6223011,11.7090288 12.49532,11.5560258 C12.2752193,11.2926083 12.3260118,10.9124669 12.6087565,10.705834 C13.937826,9.74049551 14.6997129,8.28775579 14.6997129,6.72144684 C14.6997129,5.1709114 13.9496775,3.72763578 12.6443112,2.76387468 C12.3632596,2.55566443 12.3158533,2.17552298 12.537647,1.91368282 C12.7611339,1.65184265 13.1691667,1.60767684 13.4502183,1.81430974 Z M12.1123451,4.47099739 C12.7806826,5.1100577 13.1482682,5.95380481 13.1482682,6.84755174 C13.1482682,7.73817369 12.7823534,8.57879581 12.1190285,9.21785612 C11.9937152,9.3397307 11.8266308,9.40066799 11.6595464,9.40066799 C11.4974746,9.40066799 11.3370736,9.34441818 11.2117603,9.23035607 C10.957792,8.99910687 10.9511087,8.61942067 11.1983935,8.38192148 C11.6278004,7.9678604 11.8650602,7.42411227 11.8650602,6.84755174 C11.8650602,6.26942873 11.6261295,5.7241181 11.1950518,5.31005701 C10.947767,5.07255783 10.9527795,4.69287163 11.2050769,4.46162242 C11.4590452,4.23037322 11.8650602,4.2350607 12.1123451,4.47099739 Z" id="形状结合" fill="#565656"></path>
                    <path d="M8.91631579,13.3750003 L3.03157895,10.1052747 L1.00432857,10.1052747 C0.557486467,10.1052747 0,9.72698653 0,9.26317233 L0,4.21055807 C0,3.74509914 0.557486467,3.3684557 1.00432857,3.3684557 L3.03157895,3.3684557 L8.91631579,0.0987300659 C9.16736842,-0.0394273552 9.46894737,-0.0328484303 9.71368421,0.120111572 C9.95684211,0.271426842 10.1052632,0.546096953 10.1052632,0.84214857 L10.1052632,12.6315818 C10.1052632,12.9276335 9.95684211,13.2023036 9.71368421,13.3536188 C9.58421053,13.4325659 9.44052632,13.4736842 9.29684211,13.4736842 C9.16578947,13.4736842 9.03631579,13.4407896 8.91631579,13.3750003 Z M1.61684211,8.42106995 L3.23368421,8.42106995 C3.36631579,8.42106995 3.49736842,8.45560931 3.61421053,8.51975383 L8.48842105,11.2269814 L8.48842105,2.24510429 L3.61421053,4.95233185 C3.49736842,5.01812109 3.36631579,5.05101572 3.23368421,5.05101572 L1.61684211,5.05101572 L1.61684211,8.42106995 Z" id="形状" fill="#101010"></path>
                </g>
                <text id="英/həˈləʊ/" font-family="PingFangSC-Regular, PingFang SC" font-size="12" font-weight="normal" letter-spacing="0.695532" fill="#242424">
                    <tspan x="11.745106" y="19">英</tspan>
                    <tspan x="24.440638" y="19" font-family="ArialMT, Arial">/h</tspan>
                    <tspan x="35.8395145" y="19" font-family="Helvetica">əˈ</tspan>
                    <tspan x="46.1954223" y="19" font-family="ArialMT, Arial">l</tspan>
                    <tspan x="49.5569699" y="19" font-family="Helvetica">əʊ</tspan>
                    <tspan x="64.2253776" y="19" font-family="ArialMT, Arial">/</tspan>
                </text>
            </g>
            <g id="形状结合">
                <use fill="black" fill-opacity="1" filter="url(#filter-4)" xlink:href="#path-3"></use>
                <path stroke="#979797" stroke-width="2" d="M302,63 C304.209139,63 306.209139,63.8954305 307.656854,65.3431458 C309.104569,66.790861 310,68.790861 310,71 C310,73.209139 309.104569,75.209139 307.656854,76.6568542 C306.209139,78.1045695 304.209139,79 302,79 C299.790861,79 297.790861,78.1045695 296.343146,76.6568542 C294.895431,75.209139 294,73.209139 294,71 C294,68.790861 294.895431,66.790861 296.343146,65.3431458 C297.790861,63.8954305 299.790861,63 302,63 Z" fill-opacity="0.496945681" fill="#FFFFFF" fill-rule="evenodd"></path>
            </g>
            <g id="编组-7" transform="translate(13.000000, 9.000000)" stroke="#242424" stroke-width="2">
                <circle id="椭圆形" fill="#FF4A4A" cx="7" cy="7" r="6"></circle>
                <circle id="椭圆形" fill="#FFC32C" cx="27" cy="7" r="6"></circle>
                <circle id="椭圆形" fill="#28C840" cx="47" cy="7" r="6"></circle>
            </g>
        </g>
    </g>
</svg>